<svg width="24" height="24" viewBox="0 0 24 24" fill="none" xmlns="http://www.w3.org/2000/svg">
<path fill-rule="evenodd" clip-rule="evenodd" d="M23.0776 16.6149C23.0776 21.7097 18.4627 24 11.9998 24C5.53698 24 0.92041 21.7097 0.92041 16.6509C0.92041 11.808 3.03755 9.05315 7.27184 6.56229C8.63645 7.58769 10.2975 8.14154 12.0044 8.1403C13.7113 8.13906 15.3716 7.58281 16.7347 6.55543C20.9638 9.02057 23.0776 11.7754 23.0776 16.6149ZM14.9878 5.15657L17.165 1.75372C17.2595 1.57318 17.3064 1.37152 17.3013 1.1678C17.2961 0.964081 17.2391 0.765037 17.1357 0.589482C17.0322 0.413928 16.8856 0.267664 16.7099 0.164517C16.5341 0.0613695 16.335 0.00474709 16.1313 2.22621e-06H8.30212C8.08497 -0.00411652 7.87077 0.050777 7.68237 0.158829C7.49396 0.266882 7.33842 0.424042 7.23231 0.613551C7.12621 0.803061 7.07352 1.01781 7.07988 1.23491C7.08624 1.45201 7.1514 1.66331 7.26841 1.84629L9.06327 5.18915C10.8821 6.27772 13.1776 6.26743 14.9878 5.15657Z" fill="#8E8E8E"/>
</svg>
