<svg width="28" height="30" viewBox="0 0 28 30" fill="none" xmlns="http://www.w3.org/2000/svg">
<path d="M5 12C4.99918 10.13 5.58085 8.30626 6.66418 6.78207C7.74751 5.25788 9.2787 4.10898 11.045 3.49501C10.9766 3.06648 11.002 2.6282 11.1194 2.21043C11.2368 1.79266 11.4435 1.40533 11.7251 1.07518C12.0067 0.745026 12.3567 0.479903 12.7507 0.298103C13.1447 0.116303 13.5735 0.0221558 14.0075 0.0221558C14.4415 0.0221558 14.8703 0.116303 15.2643 0.298103C15.6583 0.479903 16.0082 0.745026 16.2899 1.07518C16.5715 1.40533 16.7782 1.79266 16.8956 2.21043C17.013 2.6282 17.0384 3.06648 16.97 3.49501C18.7335 4.1115 20.2614 5.26148 21.3419 6.78545C22.4224 8.30943 23.0019 10.1319 23 12V21L27.5 24V25.5H0.5V24L5 21V12ZM17 27C17 27.7957 16.6839 28.5587 16.1213 29.1213C15.5587 29.6839 14.7956 30 14 30C13.2044 30 12.4413 29.6839 11.8787 29.1213C11.3161 28.5587 11 27.7957 11 27H17Z" fill="#8E8E8E"/>
</svg>
