<svg width="20" height="18" viewBox="0 0 20 18" fill="none" xmlns="http://www.w3.org/2000/svg">
<path fill-rule="evenodd" clip-rule="evenodd" d="M2.08325 2.33336C2.08325 1.89133 2.25885 1.46741 2.57141 1.15484C2.88397 0.842284 3.30789 0.666689 3.74992 0.666689C4.22291 0.666128 4.69057 0.766486 5.12169 0.961062C5.5528 1.15564 5.93744 1.43995 6.24992 1.79502C6.5624 1.43995 6.94704 1.15564 7.37815 0.961062C7.80927 0.766486 8.27693 0.666128 8.74992 0.666689C9.19195 0.666689 9.61587 0.842284 9.92843 1.15484C10.241 1.46741 10.4166 1.89133 10.4166 2.33336C10.4166 2.94086 10.2541 3.51002 9.97075 4.00002H10.8333C11.0543 4.00002 11.2662 4.08782 11.4225 4.2441C11.5788 4.40038 11.6666 4.61234 11.6666 4.83336V5.66669H14.9999C15.5471 5.66669 16.0889 5.77446 16.5944 5.98386C17.1 6.19325 17.5593 6.50017 17.9462 6.88708C18.3331 7.27399 18.64 7.73332 18.8494 8.23884C19.0588 8.74437 19.1666 9.28618 19.1666 9.83336V13.1667C19.1667 13.7031 18.9943 14.2254 18.6748 14.6564C18.3553 15.0873 17.9057 15.4041 17.3924 15.56C17.2396 16.0642 16.9314 16.5072 16.5118 16.8258C16.0922 17.1444 15.5828 17.3223 15.0561 17.3341C14.5294 17.3459 14.0124 17.1911 13.579 16.8916C13.1455 16.5922 12.8177 16.1635 12.6424 15.6667H7.35825C7.18294 16.1635 6.85516 16.5922 6.42172 16.8916C5.98827 17.1911 5.4713 17.3459 4.94461 17.3341C4.41792 17.3223 3.90843 17.1444 3.48886 16.8258C3.06929 16.5072 2.76109 16.0642 2.60825 15.56C2.09478 15.4043 1.64502 15.0875 1.32539 14.6566C1.00576 14.2256 0.83322 13.7033 0.833252 13.1667V4.83336C0.833252 4.61234 0.921049 4.40038 1.07733 4.2441C1.23361 4.08782 1.44557 4.00002 1.66659 4.00002H2.52909C2.23613 3.49349 2.08232 2.9185 2.08325 2.33336ZM3.74992 2.33336C4.19195 2.33336 4.61587 2.50895 4.92843 2.82151C5.24099 3.13407 5.41659 3.558 5.41659 4.00002C4.97456 4.00002 4.55063 3.82443 4.23807 3.51187C3.92551 3.19931 3.74992 2.77538 3.74992 2.33336ZM7.08325 4.00002C7.52528 4.00002 7.9492 3.82443 8.26176 3.51187C8.57432 3.19931 8.74992 2.77538 8.74992 2.33336C8.30789 2.33336 7.88397 2.50895 7.57141 2.82151C7.25885 3.13407 7.08325 3.558 7.08325 4.00002ZM12.6424 14H11.6666V7.33336H14.9999C15.663 7.33336 16.2988 7.59675 16.7677 8.06559C17.2365 8.53443 17.4999 9.17031 17.4999 9.83336V13.1667C17.5 13.2761 17.4785 13.3845 17.4366 13.4856C17.3947 13.5867 17.3333 13.6786 17.2558 13.7559C17.0427 13.3096 16.7021 12.9365 16.277 12.6838C15.8519 12.4311 15.3613 12.3102 14.8675 12.3363C14.3736 12.3625 13.8986 12.5345 13.5026 12.8306C13.1065 13.1268 12.8072 13.5337 12.6424 14ZM4.41075 14.2442C4.48762 14.1646 4.57958 14.1011 4.68125 14.0574C4.78292 14.0138 4.89227 13.9908 5.00292 13.9898C5.11357 13.9889 5.2233 14.0099 5.32571 14.0518C5.42813 14.0937 5.52117 14.1556 5.59941 14.2339C5.67766 14.3121 5.73954 14.4051 5.78144 14.5076C5.82334 14.61 5.84442 14.7197 5.84346 14.8304C5.8425 14.941 5.81951 15.0504 5.77584 15.152C5.73216 15.2537 5.66868 15.3457 5.58909 15.4225C5.43192 15.5743 5.22142 15.6583 5.00292 15.6564C4.78442 15.6545 4.57541 15.5669 4.4209 15.4124C4.2664 15.2579 4.17876 15.0489 4.17686 14.8304C4.17496 14.6119 4.25895 14.4014 4.41075 14.2442ZM14.1666 14.8334C14.1666 14.6123 14.2544 14.4004 14.4107 14.2441C14.5669 14.0878 14.7789 14 14.9999 14C15.2209 14 15.4329 14.0878 15.5892 14.2441C15.7455 14.4004 15.8333 14.6123 15.8333 14.8334C15.8333 15.0544 15.7455 15.2663 15.5892 15.4226C15.4329 15.5789 15.2209 15.6667 14.9999 15.6667C14.7789 15.6667 14.5669 15.5789 14.4107 15.4226C14.2544 15.2663 14.1666 15.0544 14.1666 14.8334Z" fill="#1400FC"/>
</svg>
