<svg width="18" height="18" viewBox="0 0 18 18" fill="none" xmlns="http://www.w3.org/2000/svg">
<path d="M14.1668 14C13.2418 14 12.5002 14.7417 12.5002 15.6667C12.5002 16.1087 12.6758 16.5326 12.9883 16.8452C13.3009 17.1578 13.7248 17.3334 14.1668 17.3334C14.6089 17.3334 15.0328 17.1578 15.3453 16.8452C15.6579 16.5326 15.8335 16.1087 15.8335 15.6667C15.8335 15.2247 15.6579 14.8007 15.3453 14.4882C15.0328 14.1756 14.6089 14 14.1668 14ZM0.833496 0.666687V2.33335H2.50016L5.50016 8.65835L4.36683 10.7C4.24183 10.9334 4.16683 11.2084 4.16683 11.5C4.16683 11.942 4.34242 12.366 4.65498 12.6785C4.96755 12.9911 5.39147 13.1667 5.8335 13.1667H15.8335V11.5H6.1835C6.12824 11.5 6.07525 11.4781 6.03618 11.439C5.99711 11.3999 5.97516 11.3469 5.97516 11.2917C5.97516 11.25 5.9835 11.2167 6.00016 11.1917L6.75016 9.83335H12.9585C13.5835 9.83335 14.1335 9.48335 14.4168 8.97502L17.4002 3.58335C17.4585 3.45002 17.5002 3.30835 17.5002 3.16669C17.5002 2.94567 17.4124 2.73371 17.2561 2.57743C17.0998 2.42115 16.8878 2.33335 16.6668 2.33335H4.34183L3.5585 0.666687M5.8335 14C4.9085 14 4.16683 14.7417 4.16683 15.6667C4.16683 16.1087 4.34242 16.5326 4.65498 16.8452C4.96755 17.1578 5.39147 17.3334 5.8335 17.3334C6.27552 17.3334 6.69945 17.1578 7.01201 16.8452C7.32457 16.5326 7.50016 16.1087 7.50016 15.6667C7.50016 15.2247 7.32457 14.8007 7.01201 14.4882C6.69945 14.1756 6.27552 14 5.8335 14Z" fill="#019934"/>
</svg>
