<svg width="242" height="62" viewBox="0 0 242 62" fill="none" xmlns="http://www.w3.org/2000/svg">
<path d="M9.93148 43.022C20.1049 52.7987 35.0737 56.2237 38.9077 56.8389C36.2796 38.6876 18.7964 25.9087 0.198298 29.7154C-2.30055 51.34 19.2736 67.499 39.1797 59.4447C39.179 59.4291 39.1774 59.4141 39.1764 59.3989C18.0567 56.8219 9.93148 43.022 9.93148 43.022Z" fill="#019934"/>
<path d="M56.8027 29.7156C54.6863 29.2823 52.4948 29.0546 50.2503 29.0546C42.6988 29.0546 35.7542 31.6377 30.2368 35.9588C33.0283 38.5239 35.3972 41.5442 37.2346 44.9008C41.577 42.4393 48.3101 38.2856 50.6805 34.897C47.7119 40.3037 44.1931 42.7804 38.2393 46.8908C39.9022 50.4547 40.9862 54.3464 41.3506 58.4545C50.632 53.7564 56.9999 44.137 56.9999 33.0222C56.9998 31.9027 56.928 30.801 56.8027 29.7156Z" fill="#019934"/>
<path d="M20.7532 18.3826L22.8171 30.4701C24.3176 31.1391 25.7571 31.9268 27.1248 32.8202L23.3038 17.8406C26.18 16.5087 27.941 12.219 26.9805 7.70045C25.916 2.69173 21.9115 -0.700532 18.0356 0.123265C14.1598 0.947063 11.8814 5.67491 12.9458 10.6836C13.9063 15.2024 17.2602 18.4043 20.7532 18.3826Z" fill="#F6921E"/>
<path d="M34.15 18.6308L30.5923 32.5784C31.9419 31.722 33.3438 30.9754 34.7926 30.3462L36.7003 19.1733C39.8693 19.1259 42.2518 15.7172 43.2126 11.1983C43.5268 9.71941 44.2546 5.72268 43.7299 3.21647C43.6887 3.01739 43.5135 2.87461 43.3098 2.87461C43.1065 2.87433 42.9314 3.01625 42.8884 3.21506L40.926 12.4503C40.8835 12.6511 40.7624 12.827 40.5902 12.938C40.4183 13.0503 40.2086 13.089 40.0075 13.0466L39.9631 13.037C39.545 12.9481 39.2781 12.5369 39.3664 12.1188L41.3202 2.92895C41.4171 2.47432 41.127 2.0279 40.6724 1.93125L40.6571 1.92814C40.4388 1.88173 40.2111 1.9239 40.0239 2.04544C39.8367 2.16685 39.706 2.35787 39.6596 2.57591L37.7058 11.7657C37.6626 11.9668 37.5425 12.1421 37.37 12.2542C37.1981 12.3664 36.9884 12.4052 36.7873 12.3624L36.7435 12.3528C36.3253 12.2638 36.0579 11.8528 36.1472 11.4346L38.1 2.24467C38.1464 2.02648 38.104 1.79867 37.9828 1.61175C37.861 1.42455 37.67 1.29338 37.4522 1.24669C36.989 1.14863 36.5343 1.44394 36.4361 1.90677L34.4863 11.0813C34.4434 11.2824 34.3227 11.4583 34.1505 11.5698C33.978 11.6816 33.7682 11.7203 33.5678 11.6779L33.5234 11.6682C33.1053 11.5797 32.8384 11.1682 32.9271 10.7498L34.8986 1.47549C34.9398 1.28291 34.8441 1.08722 34.6676 1.00048C34.4911 0.913745 34.2773 0.957894 34.15 1.10802C32.5075 3.04795 31.4747 6.96417 31.1209 8.62804C30.1606 13.1469 30.95 17.2301 34.15 18.6308Z" fill="#F6921E"/>
<path d="M79.92 33V19.872L79.44 17.472L79.92 16.008H88.056C89.192 16.008 90.288 16.12 91.344 16.344C92.416 16.552 93.368 16.952 94.2 17.544C95.048 18.136 95.72 18.984 96.216 20.088C96.712 21.192 96.96 22.624 96.96 24.384C96.96 26.144 96.704 27.592 96.192 28.728C95.696 29.848 95.024 30.72 94.176 31.344C93.328 31.968 92.376 32.4 91.32 32.64C90.264 32.88 89.176 33 88.056 33H79.92ZM85.248 28.44H87.072C88.016 28.44 88.808 28.336 89.448 28.128C90.104 27.92 90.6 27.528 90.936 26.952C91.272 26.36 91.44 25.504 91.44 24.384C91.44 23.248 91.264 22.416 90.912 21.888C90.576 21.344 90.08 20.992 89.424 20.832C88.784 20.656 88 20.568 87.072 20.568H85.248V28.44ZM99.8419 33L99.3619 31.56L99.8419 29.16V16.008H112.202L113.402 16.728L111.818 20.808L109.658 20.568H105.17V22.488H111.098V26.448H107.786L105.17 26.208V28.44H111.818L114.674 31.464L113.258 33H99.8419ZM122.48 33.24C121.6 33.24 120.728 33.16 119.864 33C119.016 32.856 118.264 32.664 117.608 32.424C116.952 32.184 116.48 31.944 116.192 31.704V26.688C116.8 27.024 117.48 27.328 118.232 27.6C118.984 27.872 119.744 28.088 120.512 28.248C121.296 28.392 122.04 28.464 122.744 28.464C123.72 28.464 124.208 28.24 124.208 27.792C124.208 27.568 124.104 27.384 123.896 27.24C123.704 27.08 123.36 26.912 122.864 26.736C122.368 26.56 121.664 26.336 120.752 26.064C119.696 25.728 118.792 25.376 118.04 25.008C117.304 24.64 116.736 24.168 116.336 23.592C115.952 23.016 115.76 22.248 115.76 21.288C115.76 19.624 116.424 18.288 117.752 17.28C119.08 16.272 121.024 15.768 123.584 15.768C124.096 15.768 124.64 15.792 125.216 15.84C125.808 15.872 126.28 15.92 126.632 15.984L129.584 17.976L128.384 21.624L122.24 20.064C121.6 20.064 121.28 20.28 121.28 20.712C121.28 21.048 121.48 21.328 121.88 21.552C122.296 21.76 123.04 22.048 124.112 22.416C125.536 22.896 126.664 23.392 127.496 23.904C128.344 24.4 128.952 24.968 129.32 25.608C129.688 26.248 129.872 27.008 129.872 27.888C129.872 29.488 129.256 30.784 128.024 31.776C126.792 32.752 124.944 33.24 122.48 33.24ZM132.555 33V19.872L132.315 17.472L132.555 16.008H137.835V22.512H142.851V16.008H148.131V25.032L148.371 26.688V33H142.851V26.904H137.835V28.584L138.075 33H132.555ZM151.493 33V19.848L151.253 17.448L151.493 16.008H156.797V33H151.493Z" fill="#019934"/>
<path d="M165.912 33V19.872L165.432 17.472L165.936 16.032H171.528L176.232 24.432H176.712L180.6 16.032H186.336L186.576 17.472L186.336 19.776V33H181.032L181.104 30.96V24.264H180.84L179.928 26.784L178.2 30.6H174.36L171.528 24.264H171.288V26.208L171.528 33H165.912ZM188.256 33L189.408 28.944V25.896L191.184 25.176L194.544 16.032H201.768L205.872 26.784L207.72 30.192V33H202.512L201.312 29.424H194.808L193.776 33H188.256ZM196.392 25.224H199.992L198.408 20.448H197.904L196.392 25.224ZM209.881 33V19.872L209.401 17.448L209.881 16.008H218.521C219.817 16.008 220.929 16.216 221.857 16.632C222.785 17.048 223.497 17.72 223.993 18.648C224.489 19.56 224.737 20.768 224.737 22.272C224.737 23.664 224.505 24.808 224.041 25.704C223.577 26.6 222.897 27.28 222.001 27.744L222.409 28.08L224.065 30.336L225.433 31.56V33H219.073L216.433 28.608H215.161V29.136L215.401 31.536L215.161 33H209.881ZM215.161 24.12H216.553C217.113 24.12 217.593 24.096 217.993 24.048C218.409 24 218.729 23.856 218.953 23.616C219.177 23.36 219.289 22.952 219.289 22.392C219.289 21.8 219.169 21.376 218.929 21.12C218.689 20.864 218.353 20.712 217.921 20.664C217.505 20.6 217.017 20.568 216.457 20.568H214.921L215.161 24.12ZM230.96 33V20.592L226.16 20.832V16.008H241.16V20.832L236.24 20.592V29.16L236.504 31.56L236.24 33H230.96Z" fill="white"/>
<path d="M109.228 42.27C110.264 42.27 111.169 42.4707 111.944 42.872C112.728 43.264 113.33 43.8333 113.75 44.58C114.179 45.3173 114.394 46.1807 114.394 47.17C114.394 48.1593 114.179 49.018 113.75 49.746C113.33 50.474 112.728 51.034 111.944 51.426C111.169 51.8087 110.264 52 109.228 52H106.05V42.27H109.228ZM109.228 50.698C110.367 50.698 111.239 50.39 111.846 49.774C112.453 49.158 112.756 48.29 112.756 47.17C112.756 46.0407 112.453 45.1587 111.846 44.524C111.239 43.8893 110.367 43.572 109.228 43.572H107.646V50.698H109.228ZM123.046 47.954C123.046 48.2433 123.027 48.5047 122.99 48.738H117.096C117.142 49.354 117.371 49.8487 117.782 50.222C118.192 50.5953 118.696 50.782 119.294 50.782C120.152 50.782 120.759 50.4227 121.114 49.704H122.836C122.602 50.4133 122.178 50.9967 121.562 51.454C120.955 51.902 120.199 52.126 119.294 52.126C118.556 52.126 117.894 51.9627 117.306 51.636C116.727 51.3 116.27 50.8333 115.934 50.236C115.607 49.6293 115.444 48.9293 115.444 48.136C115.444 47.3427 115.602 46.6473 115.92 46.05C116.246 45.4433 116.699 44.9767 117.278 44.65C117.866 44.3233 118.538 44.16 119.294 44.16C120.022 44.16 120.67 44.3187 121.24 44.636C121.809 44.9533 122.252 45.4013 122.57 45.98C122.887 46.5493 123.046 47.2073 123.046 47.954ZM121.38 47.45C121.37 46.862 121.16 46.3907 120.75 46.036C120.339 45.6813 119.83 45.504 119.224 45.504C118.673 45.504 118.202 45.6813 117.81 46.036C117.418 46.3813 117.184 46.8527 117.11 47.45H121.38ZM127.416 52.126C126.81 52.126 126.264 52.0187 125.778 51.804C125.302 51.58 124.924 51.2813 124.644 50.908C124.364 50.5253 124.215 50.1007 124.196 49.634H125.848C125.876 49.9607 126.03 50.236 126.31 50.46C126.6 50.6747 126.959 50.782 127.388 50.782C127.836 50.782 128.182 50.698 128.424 50.53C128.676 50.3527 128.802 50.1287 128.802 49.858C128.802 49.5687 128.662 49.354 128.382 49.214C128.112 49.074 127.678 48.92 127.08 48.752C126.502 48.5933 126.03 48.4393 125.666 48.29C125.302 48.1407 124.985 47.912 124.714 47.604C124.453 47.296 124.322 46.89 124.322 46.386C124.322 45.9753 124.444 45.602 124.686 45.266C124.929 44.9207 125.274 44.65 125.722 44.454C126.18 44.258 126.702 44.16 127.29 44.16C128.168 44.16 128.872 44.384 129.404 44.832C129.946 45.2707 130.235 45.8727 130.272 46.638H128.676C128.648 46.2927 128.508 46.0173 128.256 45.812C128.004 45.6067 127.664 45.504 127.234 45.504C126.814 45.504 126.492 45.5833 126.268 45.742C126.044 45.9007 125.932 46.1107 125.932 46.372C125.932 46.5773 126.007 46.75 126.156 46.89C126.306 47.03 126.488 47.142 126.702 47.226C126.917 47.3007 127.234 47.3987 127.654 47.52C128.214 47.6693 128.672 47.8233 129.026 47.982C129.39 48.1313 129.703 48.3553 129.964 48.654C130.226 48.9527 130.361 49.3493 130.37 49.844C130.37 50.2827 130.249 50.6747 130.006 51.02C129.764 51.3653 129.418 51.636 128.97 51.832C128.532 52.028 128.014 52.126 127.416 52.126ZM136.085 44.16C136.673 44.16 137.196 44.286 137.653 44.538C138.12 44.79 138.484 45.1633 138.745 45.658C139.016 46.1527 139.151 46.75 139.151 47.45V52H137.569V47.688C137.569 46.9973 137.396 46.47 137.051 46.106C136.706 45.7327 136.234 45.546 135.637 45.546C135.04 45.546 134.564 45.7327 134.209 46.106C133.864 46.47 133.691 46.9973 133.691 47.688V52H132.095V41.64H133.691V45.182C133.962 44.8553 134.302 44.6033 134.713 44.426C135.133 44.2487 135.59 44.16 136.085 44.16ZM147.875 48.15L151.431 52H149.275L146.419 48.682V52H144.823V41.64H146.419V47.66L149.219 44.286H151.431L147.875 48.15ZM152.043 48.108C152.043 47.3333 152.202 46.6473 152.519 46.05C152.846 45.4527 153.285 44.9907 153.835 44.664C154.395 44.328 155.011 44.16 155.683 44.16C156.29 44.16 156.817 44.2813 157.265 44.524C157.723 44.7573 158.087 45.0513 158.357 45.406V44.286H159.967V52H158.357V50.852C158.087 51.216 157.718 51.5193 157.251 51.762C156.785 52.0047 156.253 52.126 155.655 52.126C154.993 52.126 154.386 51.958 153.835 51.622C153.285 51.2767 152.846 50.8007 152.519 50.194C152.202 49.578 152.043 48.8827 152.043 48.108ZM158.357 48.136C158.357 47.604 158.245 47.142 158.021 46.75C157.807 46.358 157.522 46.0593 157.167 45.854C156.813 45.6487 156.43 45.546 156.019 45.546C155.609 45.546 155.226 45.6487 154.871 45.854C154.517 46.05 154.227 46.344 154.003 46.736C153.789 47.1187 153.681 47.576 153.681 48.108C153.681 48.64 153.789 49.1067 154.003 49.508C154.227 49.9093 154.517 50.2173 154.871 50.432C155.235 50.6373 155.618 50.74 156.019 50.74C156.43 50.74 156.813 50.6373 157.167 50.432C157.522 50.2267 157.807 49.928 158.021 49.536C158.245 49.1347 158.357 48.668 158.357 48.136ZM175.038 44.16C175.645 44.16 176.186 44.286 176.662 44.538C177.148 44.79 177.526 45.1633 177.796 45.658C178.076 46.1527 178.216 46.75 178.216 47.45V52H176.634V47.688C176.634 46.9973 176.462 46.47 176.116 46.106C175.771 45.7327 175.3 45.546 174.702 45.546C174.105 45.546 173.629 45.7327 173.274 46.106C172.929 46.47 172.756 46.9973 172.756 47.688V52H171.174V47.688C171.174 46.9973 171.002 46.47 170.656 46.106C170.311 45.7327 169.84 45.546 169.242 45.546C168.645 45.546 168.169 45.7327 167.814 46.106C167.469 46.47 167.296 46.9973 167.296 47.688V52H165.7V44.286H167.296V45.168C167.558 44.8507 167.889 44.6033 168.29 44.426C168.692 44.2487 169.121 44.16 169.578 44.16C170.194 44.16 170.745 44.2907 171.23 44.552C171.716 44.8133 172.089 45.1913 172.35 45.686C172.584 45.2193 172.948 44.8507 173.442 44.58C173.937 44.3 174.469 44.16 175.038 44.16ZM179.715 48.108C179.715 47.3333 179.874 46.6473 180.191 46.05C180.518 45.4527 180.957 44.9907 181.507 44.664C182.067 44.328 182.683 44.16 183.355 44.16C183.962 44.16 184.489 44.2813 184.937 44.524C185.395 44.7573 185.759 45.0513 186.029 45.406V44.286H187.639V52H186.029V50.852C185.759 51.216 185.39 51.5193 184.923 51.762C184.457 52.0047 183.925 52.126 183.327 52.126C182.665 52.126 182.058 51.958 181.507 51.622C180.957 51.2767 180.518 50.8007 180.191 50.194C179.874 49.578 179.715 48.8827 179.715 48.108ZM186.029 48.136C186.029 47.604 185.917 47.142 185.693 46.75C185.479 46.358 185.194 46.0593 184.839 45.854C184.485 45.6487 184.102 45.546 183.691 45.546C183.281 45.546 182.898 45.6487 182.543 45.854C182.189 46.05 181.899 46.344 181.675 46.736C181.461 47.1187 181.353 47.576 181.353 48.108C181.353 48.64 181.461 49.1067 181.675 49.508C181.899 49.9093 182.189 50.2173 182.543 50.432C182.907 50.6373 183.29 50.74 183.691 50.74C184.102 50.74 184.485 50.6373 184.839 50.432C185.194 50.2267 185.479 49.928 185.693 49.536C185.917 49.1347 186.029 48.668 186.029 48.136ZM191.332 45.406C191.565 45.014 191.873 44.7107 192.256 44.496C192.648 44.272 193.11 44.16 193.642 44.16V45.812H193.236C192.61 45.812 192.134 45.9707 191.808 46.288C191.49 46.6053 191.332 47.156 191.332 47.94V52H189.736V44.286H191.332V45.406ZM198.161 48.15L201.717 52H199.561L196.705 48.682V52H195.109V41.64H196.705V47.66L199.505 44.286H201.717L198.161 48.15ZM209.931 47.954C209.931 48.2433 209.912 48.5047 209.875 48.738H203.981C204.027 49.354 204.256 49.8487 204.667 50.222C205.077 50.5953 205.581 50.782 206.179 50.782C207.037 50.782 207.644 50.4227 207.999 49.704H209.721C209.487 50.4133 209.063 50.9967 208.447 51.454C207.84 51.902 207.084 52.126 206.179 52.126C205.441 52.126 204.779 51.9627 204.191 51.636C203.612 51.3 203.155 50.8333 202.819 50.236C202.492 49.6293 202.329 48.9293 202.329 48.136C202.329 47.3427 202.487 46.6473 202.805 46.05C203.131 45.4433 203.584 44.9767 204.163 44.65C204.751 44.3233 205.423 44.16 206.179 44.16C206.907 44.16 207.555 44.3187 208.125 44.636C208.694 44.9533 209.137 45.4013 209.455 45.98C209.772 46.5493 209.931 47.2073 209.931 47.954ZM208.265 47.45C208.255 46.862 208.045 46.3907 207.635 46.036C207.224 45.6813 206.715 45.504 206.109 45.504C205.558 45.504 205.087 45.6813 204.695 46.036C204.303 46.3813 204.069 46.8527 203.995 47.45H208.265ZM213.363 45.588V49.858C213.363 50.1473 213.429 50.3573 213.559 50.488C213.699 50.6093 213.933 50.67 214.259 50.67H215.239V52H213.979C213.261 52 212.71 51.832 212.327 51.496C211.945 51.16 211.753 50.614 211.753 49.858V45.588H210.843V44.286H211.753V42.368H213.363V44.286H215.239V45.588H213.363Z" fill="#7C7C7C"/>
</svg>
