<svg width="18" height="18" viewBox="0 0 18 18" fill="none" xmlns="http://www.w3.org/2000/svg">
<path fill-rule="evenodd" clip-rule="evenodd" d="M14 0C12.9391 0 11.9217 0.421427 11.1716 1.17157C10.4214 1.92172 10 2.93913 10 4C10 5.06087 10.4214 6.07828 11.1716 6.82843C11.9217 7.57857 12.9391 8 14 8C15.0609 8 16.0783 7.57857 16.8284 6.82843C17.5786 6.07828 18 5.06087 18 4C18 2.93913 17.5786 1.92172 16.8284 1.17157C16.0783 0.421427 15.0609 0 14 0ZM0 14C0 12.9391 0.421427 11.9217 1.17157 11.1716C1.92172 10.4214 2.93913 10 4 10C5.06087 10 6.07828 10.4214 6.82843 11.1716C7.57857 11.9217 8 12.9391 8 14C8 15.0609 7.57857 16.0783 6.82843 16.8284C6.07828 17.5786 5.06087 18 4 18C2.93913 18 1.92172 17.5786 1.17157 16.8284C0.421427 16.0783 0 15.0609 0 14ZM10 11C10 10.7348 10.1054 10.4804 10.2929 10.2929C10.4804 10.1054 10.7348 10 11 10H17C17.2652 10 17.5196 10.1054 17.7071 10.2929C17.8946 10.4804 18 10.7348 18 11V16C18 16.5304 17.7893 17.0391 17.4142 17.4142C17.0391 17.7893 16.5304 18 16 18H12C11.4696 18 10.9609 17.7893 10.5858 17.4142C10.2107 17.0391 10 16.5304 10 16V11ZM0 1C0 0.734784 0.105357 0.48043 0.292893 0.292893C0.48043 0.105357 0.734784 0 1 0H7C7.26522 0 7.51957 0.105357 7.70711 0.292893C7.89464 0.48043 8 0.734784 8 1V6C8 6.53043 7.78929 7.03914 7.41421 7.41421C7.03914 7.78929 6.53043 8 6 8H2C1.46957 8 0.960859 7.78929 0.585786 7.41421C0.210714 7.03914 0 6.53043 0 6V1Z" fill="#8E8E8E"/>
</svg>
