<svg width="16" height="18" viewBox="0 0 16 18" fill="none" xmlns="http://www.w3.org/2000/svg">
<path d="M0 7C0 5.114 -5.96046e-08 4.172 0.586 3.586C1.172 3 2.114 3 4 3H12C13.886 3 14.828 3 15.414 3.586C16 4.172 16 5.114 16 7V9C16 9.943 16 10.414 15.707 10.707C15.414 11 14.943 11 14 11H13.3C13.159 11 13.088 11 13.044 10.956C13 10.912 13 10.841 13 10.7V10C13 9.057 13 8.586 12.707 8.293C12.414 8 11.943 8 11 8H5C4.057 8 3.586 8 3.293 8.293C3 8.586 3 9.057 3 10V10.7C3 10.841 3 10.912 2.956 10.956C2.912 11 2.841 11 2.7 11H1C0.529 11 0.293 11 0.146 10.854C-8.9407e-08 10.707 0 10.47 0 10V7Z" fill="black"/>
<path d="M3 17.262V10C3 9.057 3 8.586 3.293 8.293C3.586 8 4.057 8 5 8H11C11.943 8 12.414 8 12.707 8.293C13 8.586 13 9.057 13 10V17.262C13 17.596 13 17.763 12.89 17.838C12.78 17.912 12.625 17.85 12.314 17.726L10.686 17.074C10.6279 17.0444 10.5649 17.0257 10.5 17.019C10.4351 17.0257 10.3721 17.0444 10.314 17.074L8.186 17.926C8.12791 17.9556 8.06486 17.9743 8 17.981C7.93514 17.9743 7.87209 17.9556 7.814 17.926L5.686 17.074C5.62791 17.0444 5.56486 17.0257 5.5 17.019C5.43514 17.0257 5.37209 17.0444 5.314 17.074L3.686 17.726C3.375 17.85 3.22 17.912 3.11 17.838C3 17.763 3 17.596 3 17.262Z" fill="black" fill-opacity="0.25"/>
<path d="M5.5 11.5H9.5M5.5 14.5H10.5" stroke="black" stroke-linecap="round"/>
<path d="M3 1.74C3 1.047 3 0.701 3.164 0.452C3.23923 0.337259 3.33726 0.239226 3.452 0.164C3.702 2.98023e-08 4.047 0 4.739 0H11.261C11.953 0 12.299 2.98023e-08 12.549 0.164C12.6634 0.239333 12.7611 0.337359 12.836 0.452C13 0.702 13 1.047 13 1.739C13 1.843 13 1.895 12.975 1.932C12.9638 1.94914 12.9491 1.96378 12.932 1.975C12.895 2 12.842 2 12.74 2H3.261C3.157 2 3.105 2 3.068 1.975C3.05088 1.96375 3.03625 1.94912 3.025 1.932C3 1.895 3 1.842 3 1.74Z" fill="black"/>
</svg>
