<svg width="16" height="16" viewBox="0 0 16 16" fill="none" xmlns="http://www.w3.org/2000/svg">
<path d="M14.6666 7.16665C14.4628 5.70016 13.7825 4.34136 12.7304 3.29956C11.6784 2.25776 10.313 1.59074 8.84464 1.40127C7.37624 1.2118 5.88627 1.51038 4.60425 2.25102C3.32224 2.99165 2.31929 4.13326 1.74992 5.49998M1.33325 2.16665V5.49998H4.66659M1.33325 8.83331C1.53705 10.2998 2.21736 11.6586 3.26939 12.7004C4.32141 13.7422 5.68679 14.4092 7.15519 14.5987C8.6236 14.7882 10.1136 14.4896 11.3956 13.7489C12.6776 13.0083 13.6805 11.8667 14.2499 10.5M14.6666 13.8333V10.5H11.3333" stroke="#FF0000" stroke-width="2" stroke-linecap="round" stroke-linejoin="round"/>
</svg>
