<svg width="19" height="20" viewBox="0 0 19 20" fill="none" xmlns="http://www.w3.org/2000/svg">
<path fill-rule="evenodd" clip-rule="evenodd" d="M11.2788 0.152C10.9088 -4.47035e-08 10.4388 0 9.49983 0C8.56083 0 8.09183 -4.47035e-08 7.72083 0.152C7.22828 0.354211 6.83621 0.743765 6.63083 1.235C6.53683 1.458 6.50083 1.719 6.48583 2.098C6.47916 2.3726 6.40256 2.64097 6.26327 2.87772C6.12399 3.11447 5.92662 3.31178 5.68983 3.451C5.44857 3.5851 5.17737 3.65615 4.90135 3.65754C4.62534 3.65894 4.35343 3.59065 4.11083 3.459C3.77283 3.281 3.52783 3.183 3.28583 3.151C2.75638 3.08148 2.2209 3.2238 1.79583 3.547C1.47783 3.789 1.24283 4.193 0.773827 5C0.303827 5.807 0.0698272 6.21 0.0168272 6.605C-0.0531728 7.131 0.0908273 7.663 0.416827 8.084C0.564827 8.276 0.773827 8.437 1.09683 8.639C1.57383 8.936 1.87983 9.442 1.87983 10C1.87983 10.558 1.57383 11.064 1.09783 11.36C0.773827 11.563 0.564827 11.724 0.415827 11.916C0.25491 12.1239 0.136797 12.3617 0.0683116 12.6156C-0.00017339 12.8694 -0.017672 13.1343 0.0168272 13.395C0.0698272 13.789 0.303827 14.193 0.773827 15C1.24383 15.807 1.47783 16.21 1.79583 16.453C2.21983 16.776 2.75583 16.918 3.28583 16.849C3.52783 16.817 3.77283 16.719 4.11083 16.541C4.35355 16.4092 4.62564 16.3408 4.90185 16.3422C5.17807 16.3436 5.44945 16.4147 5.69083 16.549C6.17683 16.829 6.46483 17.344 6.48583 17.902C6.50083 18.282 6.53683 18.542 6.63083 18.765C6.83483 19.255 7.22683 19.645 7.72083 19.848C8.09083 20 8.56083 20 9.49983 20C10.4388 20 10.9088 20 11.2788 19.848C11.7714 19.6458 12.1634 19.2562 12.3688 18.765C12.4628 18.542 12.4988 18.282 12.5138 17.902C12.5338 17.344 12.8228 16.828 13.3098 16.549C13.5511 16.4149 13.8223 16.3439 14.0983 16.3425C14.3743 16.3411 14.6462 16.4093 14.8888 16.541C15.2268 16.719 15.4718 16.817 15.7138 16.849C16.2438 16.919 16.7798 16.776 17.2038 16.453C17.5218 16.211 17.7568 15.807 18.2258 15C18.6958 14.193 18.9298 13.79 18.9828 13.395C19.0172 13.1343 18.9995 12.8693 18.9309 12.6155C18.8622 12.3616 18.7439 12.1239 18.5828 11.916C18.4348 11.724 18.2258 11.563 17.9028 11.361C17.4258 11.064 17.1198 10.558 17.1198 10C17.1198 9.442 17.4258 8.936 17.9018 8.64C18.2258 8.437 18.4348 8.276 18.5838 8.084C18.7447 7.87606 18.8629 7.63829 18.9313 7.38443C18.9998 7.13057 19.0173 6.86566 18.9828 6.605C18.9298 6.211 18.6958 5.807 18.2258 5C17.7558 4.193 17.5218 3.79 17.2038 3.547C16.7788 3.2238 16.2433 3.08148 15.7138 3.151C15.4718 3.183 15.2268 3.281 14.8888 3.459C14.6461 3.59083 14.374 3.65922 14.0978 3.65782C13.8216 3.65642 13.5502 3.58528 13.3088 3.451C13.0722 3.31166 12.8751 3.11429 12.7359 2.87755C12.5968 2.64081 12.5204 2.37251 12.5138 2.098C12.4988 1.718 12.4628 1.458 12.3688 1.235C12.2672 0.991736 12.1186 0.770883 11.9316 0.585058C11.7445 0.399233 11.5227 0.252078 11.2788 0.152ZM9.49983 13C11.1698 13 12.5228 11.657 12.5228 10C12.5228 8.343 11.1688 7 9.49983 7C7.82983 7 6.47683 8.343 6.47683 10C6.47683 11.657 7.83083 13 9.49983 13Z" fill="#8E8E8E"/>
</svg>
